<?xml version="1.0" encoding="UTF-8"?>
<svg version="1.1" xmlns="http://www.w3.org/2000/svg" width="48" height="46">
<path d="M0 0 C0.87591797 0.00386719 1.75183594 0.00773438 2.65429688 0.01171875 C3.56115234 0.03621094 4.46800781 0.06070313 5.40234375 0.0859375 C6.31306641 0.08722656 7.22378906 0.08851562 8.16210938 0.08984375 C14.91761631 0.17945254 14.91761631 0.17945254 18.33984375 2.4609375 C19.02734375 5.0859375 19.02734375 5.0859375 19.33984375 7.4609375 C20.53222656 7.41453125 21.72460938 7.368125 22.953125 7.3203125 C24.51950622 7.28279439 26.08591451 7.24639427 27.65234375 7.2109375 C28.43802734 7.17742188 29.22371094 7.14390625 30.03320312 7.109375 C31.16918945 7.09003906 31.16918945 7.09003906 32.328125 7.0703125 C33.37286987 7.0388916 33.37286987 7.0388916 34.4387207 7.00683594 C36.33984375 7.4609375 36.33984375 7.4609375 38.06347656 9.10058594 C40.65653961 13.8958678 39.80788045 19.63644771 39.77734375 24.9609375 C39.80731445 26.81525391 39.80731445 26.81525391 39.83789062 28.70703125 C39.83724609 29.89425781 39.83660156 31.08148437 39.8359375 32.3046875 C39.83871704 33.93180664 39.83871704 33.93180664 39.84155273 35.59179688 C39.2217569 39.13624488 38.18337391 40.31474471 35.33984375 42.4609375 C31.9921875 42.921875 31.9921875 42.921875 28.27734375 42.8359375 C26.43462891 42.81660156 26.43462891 42.81660156 24.5546875 42.796875 C21.33984375 42.4609375 21.33984375 42.4609375 18.33984375 40.4609375 C18.33984375 42.1109375 18.33984375 43.7609375 18.33984375 45.4609375 C15.86484375 45.9559375 15.86484375 45.9559375 13.33984375 46.4609375 C12.33984375 43.4609375 12.33984375 43.4609375 12.33984375 39.4609375 C11.81197266 40.18990234 11.81197266 40.18990234 11.2734375 40.93359375 C8.39598212 43.20649285 6.01781156 42.89464372 2.40234375 42.8984375 C1.17644531 42.91777344 -0.04945312 42.93710937 -1.3125 42.95703125 C-5.34581927 42.35932816 -6.25109771 41.69612481 -8.66015625 38.4609375 C-9.05838575 35.75898792 -9.22215629 33.47179178 -9.19140625 30.7734375 C-9.19523315 30.03391846 -9.19906006 29.29439941 -9.20300293 28.5324707 C-9.20571896 26.9724796 -9.19837917 25.41244272 -9.18164062 23.85253906 C-9.16022298 21.46836564 -9.18144888 19.08720501 -9.20703125 16.703125 C-9.20438791 15.1848892 -9.19926281 13.66665527 -9.19140625 12.1484375 C-9.19950317 11.43792236 -9.2076001 10.72740723 -9.21594238 9.99536133 C-9.1530975 6.66839753 -8.86442654 4.74843326 -6.91821289 2.00927734 C-4.34360639 0.2438806 -3.09052534 -0.03183213 0 0 Z M-3.66015625 6.4609375 C-3.76028026 8.66744406 -3.79096805 10.87716136 -3.79296875 13.0859375 C-3.79392548 13.74803223 -3.7948822 14.41012695 -3.79586792 15.09228516 C-3.79654951 16.49446711 -3.79469667 17.8966522 -3.79052734 19.29882812 C-3.78517871 21.45189463 -3.79047295 23.60475252 -3.796875 25.7578125 C-3.79621421 27.11718796 -3.79493304 28.4765633 -3.79296875 29.8359375 C-3.79184082 31.08117187 -3.79071289 32.32640625 -3.78955078 33.609375 C-3.98587752 36.35999181 -3.98587752 36.35999181 -2.66015625 37.4609375 C-0.99586574 37.55917687 0.67266306 37.59067381 2.33984375 37.5859375 C3.24734375 37.58851562 4.15484375 37.59109375 5.08984375 37.59375 C7.30950986 37.71267529 7.30950986 37.71267529 8.33984375 36.4609375 C8.38065158 34.46135386 8.38238731 32.46048496 8.33984375 30.4609375 C7.67984375 30.7909375 7.01984375 31.1209375 6.33984375 31.4609375 C6.33984375 32.7809375 6.33984375 34.1009375 6.33984375 35.4609375 C5.01984375 35.1309375 3.69984375 34.8009375 2.33984375 34.4609375 C2.66984375 33.1409375 2.99984375 31.8209375 3.33984375 30.4609375 C1.68984375 30.4609375 0.03984375 30.4609375 -1.66015625 30.4609375 C-1.99015625 29.4709375 -2.32015625 28.4809375 -2.66015625 27.4609375 C-1.34015625 27.1309375 -0.02015625 26.8009375 1.33984375 26.4609375 C0.01984375 26.4609375 -1.30015625 26.4609375 -2.66015625 26.4609375 C-2.66015625 25.4709375 -2.66015625 24.4809375 -2.66015625 23.4609375 C-1.01015625 23.4609375 0.63984375 23.4609375 2.33984375 23.4609375 C2.66984375 24.1209375 2.99984375 24.7809375 3.33984375 25.4609375 C3.00984375 24.1409375 2.67984375 22.8209375 2.33984375 21.4609375 C0.68984375 21.7909375 -0.96015625 22.1209375 -2.66015625 22.4609375 C-2.66015625 21.1409375 -2.66015625 19.8209375 -2.66015625 18.4609375 C-2.00015625 18.1309375 -1.34015625 17.8009375 -0.66015625 17.4609375 C-1.32015625 17.4609375 -1.98015625 17.4609375 -2.66015625 17.4609375 C-2.33015625 16.4709375 -2.00015625 15.4809375 -1.66015625 14.4609375 C1.30984375 14.4609375 4.27984375 14.4609375 7.33984375 14.4609375 C7.66984375 15.1209375 7.99984375 15.7809375 8.33984375 16.4609375 C8.33984375 15.8009375 8.33984375 15.1409375 8.33984375 14.4609375 C10.46519034 14.60162946 12.59011904 14.74864671 14.71484375 14.8984375 C15.89820312 14.97964844 17.0815625 15.06085937 18.30078125 15.14453125 C21.33984375 15.4609375 21.33984375 15.4609375 23.33984375 16.4609375 C23.66984375 15.8009375 23.99984375 15.1409375 24.33984375 14.4609375 C26.97984375 14.4609375 29.61984375 14.4609375 32.33984375 14.4609375 C32.83484375 15.9459375 32.83484375 15.9459375 33.33984375 17.4609375 C32.67984375 17.7909375 32.01984375 18.1209375 31.33984375 18.4609375 C31.83484375 19.9459375 31.83484375 19.9459375 32.33984375 21.4609375 C30.68984375 21.7909375 29.03984375 22.1209375 27.33984375 22.4609375 C27.66984375 23.4509375 27.99984375 24.4409375 28.33984375 25.4609375 C28.33984375 24.8009375 28.33984375 24.1409375 28.33984375 23.4609375 C29.98984375 23.4609375 31.63984375 23.4609375 33.33984375 23.4609375 C33.33984375 24.4509375 33.33984375 25.4409375 33.33984375 26.4609375 C32.01984375 26.7909375 30.69984375 27.1209375 29.33984375 27.4609375 C30.65984375 27.4609375 31.97984375 27.4609375 33.33984375 27.4609375 C32.84484375 28.9459375 32.84484375 28.9459375 32.33984375 30.4609375 C30.68984375 30.4609375 29.03984375 30.4609375 27.33984375 30.4609375 C27.66984375 31.7809375 27.99984375 33.1009375 28.33984375 34.4609375 C27.01984375 34.7909375 25.69984375 35.1209375 24.33984375 35.4609375 C23.84484375 32.9859375 23.84484375 32.9859375 23.33984375 30.4609375 C23.00984375 30.4609375 22.67984375 30.4609375 22.33984375 30.4609375 C22.29730019 32.46048496 22.29903592 34.46135386 22.33984375 36.4609375 C23.37017764 37.71267529 23.37017764 37.71267529 25.58984375 37.59375 C26.95109375 37.58988281 26.95109375 37.58988281 28.33984375 37.5859375 C29.24734375 37.58851562 30.15484375 37.59109375 31.08984375 37.59375 C33.30950986 37.71267529 33.30950986 37.71267529 34.33984375 36.4609375 C34.43916528 34.76535024 34.47064382 33.06568003 34.47265625 31.3671875 C34.47394531 30.33722656 34.47523437 29.30726562 34.4765625 28.24609375 C34.47076172 26.61994141 34.47076172 26.61994141 34.46484375 24.9609375 C34.46871094 23.87683594 34.47257812 22.79273437 34.4765625 21.67578125 C34.47462891 20.13083984 34.47462891 20.13083984 34.47265625 18.5546875 C34.47096436 17.12672852 34.47096436 17.12672852 34.46923828 15.66992188 C34.58683831 13.48641612 34.58683831 13.48641612 33.33984375 12.4609375 C31.92656428 12.30473195 30.50629785 12.21037577 29.0859375 12.14453125 C28.23193359 12.10263672 27.37792969 12.06074219 26.49804688 12.01757812 C25.60021484 11.97826172 24.70238281 11.93894531 23.77734375 11.8984375 C22.87564453 11.85525391 21.97394531 11.81207031 21.04492188 11.76757812 C18.8100589 11.66115608 16.57508067 11.55913762 14.33984375 11.4609375 C14.00984375 9.4809375 13.67984375 7.5009375 13.33984375 5.4609375 C10.69394361 5.43409071 8.04831279 5.41417393 5.40234375 5.3984375 C4.27022461 5.38586914 4.27022461 5.38586914 3.11523438 5.37304688 C-0.57207389 4.9956815 -0.57207389 4.9956815 -3.66015625 6.4609375 Z M0.33984375 17.4609375 C1.65984375 17.7909375 2.97984375 18.1209375 4.33984375 18.4609375 C4.33984375 19.1209375 4.33984375 19.7809375 4.33984375 20.4609375 C4.99984375 20.4609375 5.65984375 20.4609375 6.33984375 20.4609375 C6.00984375 19.4709375 5.67984375 18.4809375 5.33984375 17.4609375 C3.68984375 17.4609375 2.03984375 17.4609375 0.33984375 17.4609375 Z M18.33984375 17.4609375 C18.66984375 18.1209375 18.99984375 18.7809375 19.33984375 19.4609375 C19.99984375 18.8009375 20.65984375 18.1409375 21.33984375 17.4609375 C20.34984375 17.4609375 19.35984375 17.4609375 18.33984375 17.4609375 Z M25.33984375 17.4609375 C25.33984375 18.4509375 25.33984375 19.4409375 25.33984375 20.4609375 C26.98984375 19.8009375 28.63984375 19.1409375 30.33984375 18.4609375 C30.33984375 18.1309375 30.33984375 17.8009375 30.33984375 17.4609375 C28.68984375 17.4609375 27.03984375 17.4609375 25.33984375 17.4609375 Z M18.33984375 24.4609375 C18.33984375 25.1209375 18.33984375 25.7809375 18.33984375 26.4609375 C21.30984375 26.9559375 21.30984375 26.9559375 24.33984375 27.4609375 C24.33984375 26.8009375 24.33984375 26.1409375 24.33984375 25.4609375 C21.36984375 24.9659375 21.36984375 24.9659375 18.33984375 24.4609375 Z M6.33984375 25.4609375 C6.33984375 25.7909375 6.33984375 26.1209375 6.33984375 26.4609375 C7.98984375 26.4609375 9.63984375 26.4609375 11.33984375 26.4609375 C11.33984375 26.1309375 11.33984375 25.8009375 11.33984375 25.4609375 C9.68984375 25.4609375 8.03984375 25.4609375 6.33984375 25.4609375 Z M11.33984375 29.4609375 C11.66984375 30.4509375 11.99984375 31.4409375 12.33984375 32.4609375 C12.66984375 31.4709375 12.99984375 30.4809375 13.33984375 29.4609375 C12.67984375 29.4609375 12.01984375 29.4609375 11.33984375 29.4609375 Z M17.33984375 29.4609375 C17.66984375 30.4509375 17.99984375 31.4409375 18.33984375 32.4609375 C18.66984375 31.4709375 18.99984375 30.4809375 19.33984375 29.4609375 C18.67984375 29.4609375 18.01984375 29.4609375 17.33984375 29.4609375 Z " fill="#C2582E" transform="translate(8.66015625,-0.4609375)"/>
<path d="M0 0 C0.91072266 0.00128906 1.82144531 0.00257812 2.75976562 0.00390625 C9.51527256 0.09351504 9.51527256 0.09351504 12.9375 2.375 C13.625 5 13.625 5 13.9375 7.375 C15.12988281 7.32859375 16.32226562 7.2821875 17.55078125 7.234375 C19.11716247 7.19685689 20.68357076 7.16045677 22.25 7.125 C23.03568359 7.09148438 23.82136719 7.05796875 24.63085938 7.0234375 C30.3300612 6.92642981 30.3300612 6.92642981 32.96875 8.875 C34.3541015 12.45010066 34.2548324 15.85653138 34.125 19.625 C34.10469727 20.74261719 34.10469727 20.74261719 34.08398438 21.8828125 C34.04877204 23.71385416 33.99496851 25.54452169 33.9375 27.375 C32.9475 27.375 31.9575 27.375 30.9375 27.375 C29.14474134 24.25589144 28.59459282 21.69817572 28.3125 18.125 C28.23773438 17.23296875 28.16296875 16.3409375 28.0859375 15.421875 C28.03695312 14.74640625 27.98796875 14.0709375 27.9375 13.375 C26.73351563 13.31441406 25.52953125 13.25382813 24.2890625 13.19140625 C22.71352923 13.10700268 21.13800904 13.02235459 19.5625 12.9375 C18.7684375 12.89818359 17.974375 12.85886719 17.15625 12.81835938 C11.1640625 12.48828125 11.1640625 12.48828125 8.9375 11.375 C8.6075 9.395 8.2775 7.415 7.9375 5.375 C0.0175 5.87 0.0175 5.87 -8.0625 6.375 C-8.3925 10.335 -8.7225 14.295 -9.0625 18.375 C-10.3825 18.705 -11.7025 19.035 -13.0625 19.375 C-13.3925 20.035 -13.7225 20.695 -14.0625 21.375 C-14.17062003 18.62394578 -14.24984945 15.87714913 -14.3125 13.125 C-14.34601562 12.34769531 -14.37953125 11.57039062 -14.4140625 10.76953125 C-14.47433636 7.24351059 -14.39491987 4.97991052 -12.67578125 1.8515625 C-8.57034163 -0.46810293 -4.62819159 -0.12499736 0 0 Z " fill="#EA6C2A" transform="translate(14.0625,-0.375)"/>
<path d="M0 0 C3.625 0.125 3.625 0.125 6.625 1.125 C8.81149067 1.19463346 11.00001139 1.20949709 13.1875 1.1875 C14.34378906 1.17847656 15.50007813 1.16945313 16.69140625 1.16015625 C18.14353516 1.14275391 18.14353516 1.14275391 19.625 1.125 C20.285 1.125 20.945 1.125 21.625 1.125 C21.955 0.795 22.285 0.465 22.625 0.125 C25.29558851 -0.01615161 27.94932238 0.08252893 30.625 0.125 C31.73344919 3.45034757 31.46954356 5.74682575 30.625 9.125 C29.305 9.455 27.985 9.785 26.625 10.125 C28.275 10.125 29.925 10.125 31.625 10.125 C31.625 12.435 31.625 14.745 31.625 17.125 C29.9375 17.875 29.9375 17.875 27.625 18.125 C24.875 16.3125 24.875 16.3125 22.625 14.125 C22.625 13.465 22.625 12.805 22.625 12.125 C21.820625 12.145625 21.01625 12.16625 20.1875 12.1875 C17.625 12.125 17.625 12.125 16.625 11.125 C16.45200019 7.92450343 16.7152357 5.19545451 17.625 2.125 C16.635 2.125 15.645 2.125 14.625 2.125 C14.625 6.415 14.625 10.705 14.625 15.125 C13.965 15.125 13.305 15.125 12.625 15.125 C12.625 10.835 12.625 6.545 12.625 2.125 C11.305 2.125 9.985 2.125 8.625 2.125 C8.625 2.785 8.625 3.445 8.625 4.125 C9.285 4.455 9.945 4.785 10.625 5.125 C10.625 7.765 10.625 10.405 10.625 13.125 C8.975 13.125 7.325 13.125 5.625 13.125 C5.295 13.785 4.965 14.445 4.625 15.125 C0.375 18.22635135 0.375 18.22635135 -2.6875 17.8125 C-3.244375 17.585625 -3.80125 17.35875 -4.375 17.125 C-4.375 14.815 -4.375 12.505 -4.375 10.125 C-2.725 10.125 -1.075 10.125 0.625 10.125 C0.295 9.795 -0.035 9.465 -0.375 9.125 C-1.695 9.125 -3.015 9.125 -4.375 9.125 C-4.47265625 2.97265625 -4.47265625 2.97265625 -4.375 1.125 C-3.375 0.125 -3.375 0.125 0 0 Z M-1.375 4.125 C-0.055 4.455 1.265 4.785 2.625 5.125 C2.625 5.785 2.625 6.445 2.625 7.125 C3.285 7.125 3.945 7.125 4.625 7.125 C4.295 6.135 3.965 5.145 3.625 4.125 C1.975 4.125 0.325 4.125 -1.375 4.125 Z M23.625 4.125 C23.625 5.115 23.625 6.105 23.625 7.125 C25.275 6.465 26.925 5.805 28.625 5.125 C28.625 4.795 28.625 4.465 28.625 4.125 C26.975 4.125 25.325 4.125 23.625 4.125 Z " fill="#C6683F" transform="translate(10.375,12.875)"/>
<path d="M0 0 C0.91910156 0.00966797 1.83820312 0.01933594 2.78515625 0.02929688 C9.53661664 0.14330832 9.53661664 0.14330832 11.875 1.3125 C11.875 2.9625 11.875 4.6125 11.875 6.3125 C5.275 6.3125 -1.325 6.3125 -8.125 6.3125 C-8.455 10.2725 -8.785 14.2325 -9.125 18.3125 C-10.445 18.6425 -11.765 18.9725 -13.125 19.3125 C-13.455 19.9725 -13.785 20.6325 -14.125 21.3125 C-14.23312003 18.56144578 -14.31234945 15.81464913 -14.375 13.0625 C-14.40851562 12.28519531 -14.44203125 11.50789062 -14.4765625 10.70703125 C-14.53681684 7.18215233 -14.45484181 4.91534647 -12.7421875 1.78515625 C-8.61902153 -0.53489385 -4.64121862 -0.14770498 0 0 Z " fill="#EA7638" transform="translate(14.125,-0.3125)"/>
<path d="M0 0 C0.66 0.33 1.32 0.66 2 1 C2 1.99 2 2.98 2 4 C2.99 4 3.98 4 5 4 C5.10853491 5.74861792 5.18583428 7.49919241 5.25 9.25 C5.29640625 10.22453125 5.3428125 11.1990625 5.390625 12.203125 C5 15 5 15 3.42578125 17.3359375 C0.13915487 19.59053144 -2.10896739 19.46645922 -6.0625 19.375 C-7.29097656 19.36210938 -8.51945312 19.34921875 -9.78515625 19.3359375 C-13 19 -13 19 -16 17 C-16.26518132 12.82339427 -16.31886422 9.95659266 -15 6 C-14.01 6.33 -13.02 6.66 -12 7 C-11.67 8.98 -11.34 10.96 -11 13 C-7.7 13 -4.4 13 -1 13 C-0.67 8.71 -0.34 4.42 0 0 Z " fill="#C85832" transform="translate(43,23)"/>
<path d="M0 0 C-0.33 0.99 -0.66 1.98 -1 3 C-3.0625 3.6875 -3.0625 3.6875 -5 4 C-3.35 4 -1.7 4 0 4 C0 6.31 0 8.62 0 11 C-1.6875 11.75 -1.6875 11.75 -4 12 C-6.75 10.1875 -6.75 10.1875 -9 8 C-9 7.34 -9 6.68 -9 6 C-10.65 6 -12.3 6 -14 6 C-14 4.35 -14 2.7 -14 1 C-13.01 1 -12.02 1 -11 1 C-11.33 1.66 -11.66 2.32 -12 3 C-10.35 2.67 -8.7 2.34 -7 2 C-7 1.34 -7 0.68 -7 0 C-2.25 -1.125 -2.25 -1.125 0 0 Z " fill="#D5622D" transform="translate(42,19)"/>
<path d="M0 0 C1.10601563 -0.00580078 1.10601563 -0.00580078 2.234375 -0.01171875 C7.7466804 -0.0016598 7.7466804 -0.0016598 10 1.125 C10 2.775 10 4.425 10 6.125 C9.01 6.125 8.02 6.125 7 6.125 C7 5.465 7 4.805 7 4.125 C1.06 4.125 -4.88 4.125 -11 4.125 C-10.67 3.135 -10.34 2.145 -10 1.125 C-6.84150315 -0.45424842 -3.4634872 -0.01816514 0 0 Z " fill="#F87226" transform="translate(16,-0.125)"/>
<path d="M0 0 C0.66 0.33 1.32 0.66 2 1 C2 1.99 2 2.98 2 4 C2.66 4 3.32 4 4 4 C4 6.64 4 9.28 4 12 C3.01 12 2.02 12 1 12 C0.87625 12.639375 0.7525 13.27875 0.625 13.9375 C0.41875 14.618125 0.2125 15.29875 0 16 C-2.76452033 17.38226016 -5.0461363 17.09525387 -8.125 17.0625 C-9.22070312 17.05347656 -10.31640625 17.04445313 -11.4453125 17.03515625 C-12.70988281 17.01775391 -12.70988281 17.01775391 -14 17 C-14 16.34 -14 15.68 -14 15 C-10.11498265 13.05749132 -5.25705445 13.34650443 -1 13 C-0.67 8.71 -0.34 4.42 0 0 Z " fill="#C85324" transform="translate(43,23)"/>
<path d="M0 0 C0.99 0 1.98 0 3 0 C2.67 3.63 2.34 7.26 2 11 C3.65 11 5.3 11 7 11 C8.80078125 12.3125 8.80078125 12.3125 10.3125 14 C10.82425781 14.556875 11.33601563 15.11375 11.86328125 15.6875 C12.23839844 16.120625 12.61351562 16.55375 13 17 C12.67 17.99 12.34 18.98 12 20 C10.68 20 9.36 20 8 20 C7.79375 19.195625 7.5875 18.39125 7.375 17.5625 C6.92125 16.716875 6.4675 15.87125 6 15 C2.94727535 14.10169161 2.94727535 14.10169161 0 14 C-0.91297308 9.02936879 -0.91297308 4.97063121 0 0 Z " fill="#D5622D" transform="translate(25,15)"/>
<path d="M0 0 C-0.08700798 2.43922361 -0.19386002 4.87478414 -0.3125 7.3125 C-0.33505859 8.00279297 -0.35761719 8.69308594 -0.38085938 9.40429688 C-0.6546608 14.55674183 -0.6546608 14.55674183 -2.54296875 16.98046875 C-3.02378906 17.31691406 -3.50460938 17.65335938 -4 18 C-4.19436491 15.54203147 -4.3807742 13.08390706 -4.5625 10.625 C-4.61857422 9.92632812 -4.67464844 9.22765625 -4.73242188 8.5078125 C-5.11328125 3.2265625 -5.11328125 3.2265625 -4 1 C-1 0 -1 0 0 0 Z " fill="#D35823" transform="translate(5,18)"/>
<path d="M0 0 C2 3 2 3 2 5 C3.19238281 4.95359375 4.38476562 4.9071875 5.61328125 4.859375 C7.17966247 4.82185689 8.74607076 4.78545677 10.3125 4.75 C11.09818359 4.71648438 11.88386719 4.68296875 12.69335938 4.6484375 C18.3925612 4.55142981 18.3925612 4.55142981 21.03125 6.5 C22.4166015 10.07510066 22.3173324 13.48153138 22.1875 17.25 C22.16719727 18.36761719 22.16719727 18.36761719 22.14648438 19.5078125 C22.11127204 21.33885416 22.05746851 23.16952169 22 25 C21.67 25 21.34 25 21 25 C20.96261719 24.03578125 20.92523438 23.0715625 20.88671875 22.078125 C20.82097656 20.81484375 20.75523438 19.5515625 20.6875 18.25 C20.62949219 16.99703125 20.57148437 15.7440625 20.51171875 14.453125 C19.90562675 10.06622572 19.90562675 10.06622572 17 7 C14.15433959 6.54281872 11.66383827 6.30478554 8.8125 6.25 C8.06291016 6.22035156 7.31332031 6.19070312 6.54101562 6.16015625 C4.69458693 6.0895921 2.84728739 6.04251524 1 6 C0.67 4.02 0.34 2.04 0 0 Z " fill="#E47441" transform="translate(26,2)"/>
<path d="M0 0 C2.31 0 4.62 0 7 0 C7 2.31 7 4.62 7 7 C5.3125 7.8125 5.3125 7.8125 3 8 C0.25 5.5625 0.25 5.5625 -2 3 C-1.34 3 -0.68 3 0 3 C0 2.01 0 1.02 0 0 Z " fill="#C76237" transform="translate(35,23)"/>
<path d="M0 0 C0.66 0 1.32 0 2 0 C2 5.28 2 10.56 2 16 C0.68 15.67 -0.64 15.34 -2 15 C-1.34 10.05 -0.68 5.1 0 0 Z " fill="#BD562D" transform="translate(23,30)"/>
<path d="M0 0 C0 4.95 0 9.9 0 15 C-0.99 15 -1.98 15 -3 15 C-3 10.38 -3 5.76 -3 1 C-1 0 -1 0 0 0 Z " fill="#EF661F" transform="translate(4,4)"/>
<path d="M0 0 C2.64 0 5.28 0 8 0 C8.33 1.32 8.66 2.64 9 4 C8.34 4 7.68 4 7 4 C7 4.66 7 5.32 7 6 C4.625 6.125 4.625 6.125 2 6 C1.34 5.34 0.68 4.68 0 4 C0 2.68 0 1.36 0 0 Z " fill="#CB6B3A" transform="translate(33,13)"/>
<path d="M0 0 C0.99 0.33 1.98 0.66 3 1 C3.33 3.31 3.66 5.62 4 8 C3.01 8.33 2.02 8.66 1 9 C1.33 9.99 1.66 10.98 2 12 C1.01 11.67 0.02 11.34 -1 11 C-1.125 3.375 -1.125 3.375 0 0 Z " fill="#AF5533" transform="translate(28,29)"/>
<path d="M0 0 C1.32 0 2.64 0 4 0 C4 4.29 4 8.58 4 13 C2.02 13 0.04 13 -2 13 C-2 12.34 -2 11.68 -2 11 C-0.68 11 0.64 11 2 11 C2 8.03 2 5.06 2 2 C1.34 2 0.68 2 0 2 C0 1.34 0 0.68 0 0 Z " fill="#D85F21" transform="translate(19,15)"/>
<path d="M0 0 C0.66 0 1.32 0 2 0 C3.1577506 3.47325181 3.06866652 6.36067448 3 10 C2.67 9.34 2.34 8.68 2 8 C-0.64 8.33 -3.28 8.66 -6 9 C-5.38125 8.814375 -4.7625 8.62875 -4.125 8.4375 C-0.94397134 6.28562767 -0.80548053 3.62466237 0 0 Z " fill="#B2562E" transform="translate(18,29)"/>
<path d="M0 0 C1.20628008 2.33214148 2.1654738 4.49642139 3 7 C1.35 7.33 -0.3 7.66 -2 8 C-2.33 7.34 -2.66 6.68 -3 6 C-3.66 7.32 -4.32 8.64 -5 10 C-5 8.35 -5 6.7 -5 5 C-4.01 4.67 -3.02 4.34 -2 4 C-1.67 3.01 -1.34 2.02 -1 1 C-0.67 0.67 -0.34 0.34 0 0 Z " fill="#B76644" transform="translate(32,14)"/>
<path d="M0 0 C3.26954202 0.56371414 4.82575883 1.49962266 7 4 C6.67 4.99 6.34 5.98 6 7 C4.68 7 3.36 7 2 7 C1.34 4.69 0.68 2.38 0 0 Z " fill="#C45B2D" transform="translate(31,28)"/>
<path d="M0 0 C2.64 0 5.28 0 8 0 C8.66 1.32 9.32 2.64 10 4 C9.34 4 8.68 4 8 4 C7.67 4.66 7.34 5.32 7 6 C6.67 5.34 6.34 4.68 6 4 C4.02111039 3.27306096 2.02045442 2.60183749 0 2 C0 1.34 0 0.68 0 0 Z " fill="#D36631" transform="translate(8,14)"/>
<path d="M0 0 C0.33 0.99 0.66 1.98 1 3 C1.66 3 2.32 3 3 3 C3 5.64 3 8.28 3 11 C2.01 11 1.02 11 0 11 C0 7.37 0 3.74 0 0 Z " fill="#D5551C" transform="translate(44,24)"/>
<path d="M0 0 C0.99 0.33 1.98 0.66 3 1 C3 3.97 3 6.94 3 10 C2.34 10 1.68 10 1 10 C-0.1577506 6.52674819 -0.06866652 3.63932552 0 0 Z " fill="#E05E24" transform="translate(44,17)"/>
<path d="M0 0 C2.9375 0.375 2.9375 0.375 6 1 C6.33 1.66 6.66 2.32 7 3 C6.34 3 5.68 3 5 3 C5 4.32 5 5.64 5 7 C3 6 3 6 2 3 C1.01 2.67 0.02 2.34 -1 2 C-0.67 1.34 -0.34 0.68 0 0 Z " fill="#D3612C" transform="translate(8,19)"/>
<path d="M0 0 C1.65 0 3.3 0 5 0 C5.33 0.99 5.66 1.98 6 3 C4.35 3.33 2.7 3.66 1 4 C0.67 2.68 0.34 1.36 0 0 Z " fill="#CA6337" transform="translate(6,27)"/>
<path d="M0 0 C1.65 0 3.3 0 5 0 C5 1.65 5 3.3 5 5 C4.67 4.01 4.34 3.02 4 2 C3.34 2 2.68 2 2 2 C1.67 2.66 1.34 3.32 1 4 C0.01 3.34 -0.98 2.68 -2 2 C-1.34 2 -0.68 2 0 2 C0 1.34 0 0.68 0 0 Z " fill="#B16E56" transform="translate(16,18)"/>
<path d="M0 0 C1.32 0 2.64 0 4 0 C4 1.98 4 3.96 4 6 C3.01 6.495 3.01 6.495 2 7 C2 5.35 2 3.7 2 2 C1.34 2 0.68 2 0 2 C0 1.34 0 0.68 0 0 Z " fill="#DF652F" transform="translate(19,15)"/>
</svg>
