<?xml version="1.0" encoding="UTF-8"?>
<svg version="1.1" xmlns="http://www.w3.org/2000/svg" width="120" height="80">
<path d="M0 0 C1.27875 0.00257812 2.5575 0.00515625 3.875 0.0078125 C5.15375 0.00523438 6.4325 0.00265625 7.75 0 C10.875 0.1328125 10.875 0.1328125 11.875 1.1328125 C11.94758946 3.31920703 11.95873783 5.50781639 11.9375 7.6953125 C11.92847656 8.89285156 11.91945313 10.09039062 11.91015625 11.32421875 C11.89855469 12.25105469 11.88695313 13.17789063 11.875 14.1328125 C9.14957733 15.49552383 6.91412726 15.30204851 3.875 15.3203125 C2.8025 15.33449219 1.73 15.34867188 0.625 15.36328125 C-2.125 15.1328125 -2.125 15.1328125 -4.125 13.1328125 C-4.35546875 10.34765625 -4.35546875 10.34765625 -4.3125 7.0703125 C-4.30605469 5.98621094 -4.29960937 4.90210938 -4.29296875 3.78515625 C-4.05039396 -0.04526886 -3.90512486 0.16596781 0 0 Z M4.875 2.1328125 C4.875 2.4628125 4.875 2.7928125 4.875 3.1328125 C6.525 3.1328125 8.175 3.1328125 9.875 3.1328125 C9.875 2.8028125 9.875 2.4728125 9.875 2.1328125 C8.225 2.1328125 6.575 2.1328125 4.875 2.1328125 Z " fill="#334872" transform="translate(36.125,30.8671875)"/>
<path d="M0 0 C1.4540625 0.0309375 1.4540625 0.0309375 2.9375 0.0625 C2.9375 0.7225 2.9375 1.3825 2.9375 2.0625 C6.25629295 1.6069794 9.5379863 1.1493508 12.8125 0.4375 C13.864375 0.251875 13.864375 0.251875 14.9375 0.0625 C15.2675 0.3925 15.5975 0.7225 15.9375 1.0625 C18.12042774 1.29731693 20.30953174 1.47613323 22.5 1.625 C23.69753906 1.70878906 24.89507812 1.79257812 26.12890625 1.87890625 C27.05574219 1.93949219 27.98257813 2.00007813 28.9375 2.0625 C30.0625 5.8125 30.0625 5.8125 28.9375 8.0625 C24.39852295 8.08715392 19.85958457 8.10533789 15.32055664 8.11743164 C13.77530234 8.1224714 12.23005284 8.1293032 10.68481445 8.13793945 C8.46824971 8.15002076 6.25174782 8.15573173 4.03515625 8.16015625 C2.99295677 8.16789818 2.99295677 8.16789818 1.92970276 8.17579651 C0.2652067 8.17599277 -1.39915499 8.12439129 -3.0625 8.0625 C-4.0625 7.0625 -4.0625 7.0625 -4.1875 4.0625 C-4.02164894 0.08207447 -4.02164894 0.08207447 0 0 Z M12.9375 3.0625 C13.9375 5.0625 13.9375 5.0625 13.9375 5.0625 Z " fill="#F17B3A" transform="translate(53.0625,33.9375)"/>
<path d="M0 0 C2.31243792 -0.02685412 4.6249627 -0.04632841 6.9375 -0.0625 C8.22527344 -0.07410156 9.51304688 -0.08570312 10.83984375 -0.09765625 C14 0 14 0 15 1 C15.07258946 3.18639453 15.08373783 5.37500389 15.0625 7.5625 C15.05347656 8.76003906 15.04445313 9.95757812 15.03515625 11.19140625 C15.02355469 12.11824219 15.01195313 13.04507813 15 14 C14.01 13.67 13.02 13.34 12 13 C12.33 12.34 12.66 11.68 13 11 C13.06950541 9.45976004 13.08452357 7.91665012 13.0625 6.375 C13.05347656 5.55773438 13.04445313 4.74046875 13.03515625 3.8984375 C13.02355469 3.27195313 13.01195312 2.64546875 13 2 C11.35 2 9.7 2 8 2 C8.66 5.63 9.32 9.26 10 13 C7.69 13 5.38 13 3 13 C2.91087781 9.16774573 3.12132271 5.73437848 4 2 C2.35 2.33 0.7 2.66 -1 3 C-0.67 2.01 -0.34 1.02 0 0 Z " fill="#153064" transform="translate(33,31)"/>
<path d="M0 0 C1.4540625 0.0309375 1.4540625 0.0309375 2.9375 0.0625 C2.9375 0.7225 2.9375 1.3825 2.9375 2.0625 C6.4025 1.5675 6.4025 1.5675 9.9375 1.0625 C10.62457555 3.55314888 10.9375 5.44136292 10.9375 8.0625 C8.62506208 8.08935412 6.3125373 8.10882841 4 8.125 C2.71222656 8.13660156 1.42445312 8.14820313 0.09765625 8.16015625 C-3.0625 8.0625 -3.0625 8.0625 -4.0625 7.0625 C-4.1875 4.0625 -4.1875 4.0625 -4.0625 1.0625 C-3.0625 0.0625 -3.0625 0.0625 0 0 Z " fill="#0F2A5E" transform="translate(53.0625,33.9375)"/>
<path d="M0 0 C2.5 0.125 2.5 0.125 3.5 1.125 C3.54092937 3.45797433 3.54241723 5.79205225 3.5 8.125 C2.51 8.62 2.51 8.62 1.5 9.125 C0.51 8.795 -0.48 8.465 -1.5 8.125 C-2.6875 4.5625 -2.6875 4.5625 -3.5 1.125 C-2.5 0.125 -2.5 0.125 0 0 Z " fill="#E57634" transform="translate(43.5,33.875)"/>
<path d="M0 0 C2.31243792 -0.02685412 4.6249627 -0.04632841 6.9375 -0.0625 C8.22527344 -0.07410156 9.51304688 -0.08570312 10.83984375 -0.09765625 C14 0 14 0 15 1 C15.07258946 3.18639453 15.08373783 5.37500389 15.0625 7.5625 C15.05347656 8.76003906 15.04445313 9.95757812 15.03515625 11.19140625 C15.02355469 12.11824219 15.01195313 13.04507813 15 14 C14.01 13.67 13.02 13.34 12 13 C12.33 12.34 12.66 11.68 13 11 C13.06950541 9.45976004 13.08452357 7.91665012 13.0625 6.375 C13.05347656 5.55773438 13.04445313 4.74046875 13.03515625 3.8984375 C13.02355469 3.27195313 13.01195312 2.64546875 13 2 C11.41676312 1.972807 9.83338938 1.95351694 8.25 1.9375 C7.36828125 1.92589844 6.4865625 1.91429687 5.578125 1.90234375 C3.2181162 1.99173802 1.25501476 2.33087179 -1 3 C-0.67 2.01 -0.34 1.02 0 0 Z " fill="#203769" transform="translate(33,31)"/>
<path d="M0 0 C0.99 0 1.98 0 3 0 C4.25541557 3.76624671 3.37061958 5.37188934 2 9 C1.34 9 0.68 9 0 9 C0 6.03 0 3.06 0 0 Z " fill="#3879D2" transform="translate(34,34)"/>
</svg>
